<svg width="66" height="60" viewBox="0 0 66 60" fill="none" xmlns="http://www.w3.org/2000/svg">
<path d="M59.25 21.3334H40.8458L43.6167 8.00425L43.7042 7.07091C43.7042 5.87508 43.2083 4.76675 42.4208 3.97925L39.3292 0.916748L20.1375 20.1376C19.0584 21.1876 18.4167 22.6459 18.4167 24.2501V53.4167C18.4167 56.6251 21.0417 59.2501 24.25 59.2501H50.5C52.9208 59.2501 54.9917 57.7918 55.8667 55.6918L64.675 35.1292C64.9375 34.4584 65.0833 33.7584 65.0833 33.0001V27.1667C65.0833 23.9584 62.4583 21.3334 59.25 21.3334ZM59.25 33.0001L50.5 53.4167H24.25V24.2501L36.9083 11.5917L33.6708 27.1667H59.25V33.0001ZM0.916687 24.2501H12.5834V59.2501H0.916687V24.2501Z" fill="#3077C6"/>
</svg>
