<svg width="54" height="66" viewBox="0 0 54 66" fill="none" xmlns="http://www.w3.org/2000/svg">
<path d="M47.4167 38.8334V50.5001H41.5833V38.8334H47.4167ZM12.4167 38.8334V50.5001H9.5C7.89583 50.5001 6.58333 49.1876 6.58333 47.5834V38.8334H12.4167ZM27 0.916748C12.5042 0.916748 0.75 12.6709 0.75 27.1667V47.5834C0.75 52.4251 4.65833 56.3334 9.5 56.3334H18.25V33.0001H6.58333V27.1667C6.58333 15.8792 15.7125 6.75008 27 6.75008C38.2875 6.75008 47.4167 15.8792 47.4167 27.1667V33.0001H35.75V56.3334H47.4167V59.2501H27V65.0834H44.5C49.3417 65.0834 53.25 61.1751 53.25 56.3334V27.1667C53.25 12.6709 41.4958 0.916748 27 0.916748Z" fill="#3077C6"/>
</svg>
